<svg width="2500" height="1200" viewBox="0 0 2500 1200" fill="none" xmlns="http://www.w3.org/2000/svg">
<rect width="2500" height="1200" fill="#2697E8"/>
<rect x="539" y="345" width="512" height="512" rx="75" fill="white"/>
<rect x="581" y="387" width="427" height="427" rx="45" fill="#2697E8"/>
<rect x="600.288" y="353" width="161" height="34" transform="rotate(34.5613 600.288 353)" fill="white"/>
<rect x="749.288" y="356" width="161" height="34" transform="rotate(34.5613 749.288 356)" fill="white"/>
<path d="M836.835 367.946L713.973 471.993L692 446.047L804.179 351.048C810.079 346.051 818.913 346.783 823.91 352.684L836.835 367.946Z" fill="white"/>
<rect x="985.835" y="370.946" width="161" height="34" transform="rotate(139.74 985.835 370.946)" fill="white"/>
<rect x="730" y="520" width="223" height="43" fill="white"/>
<rect x="614" y="520" width="86" height="43" fill="white"/>
<rect x="730" y="603" width="223" height="43" fill="white"/>
<rect x="837" y="686" width="116" height="43" fill="white"/>
<rect x="614" y="603" width="86" height="43" fill="white"/>
<path d="M1130.38 674V528.545H1232.65V560.364H1169.86V585.364H1226.4V617.182H1169.86V674H1130.38ZM1292.29 675.989C1280.45 675.989 1270.32 673.645 1261.89 668.957C1253.46 664.223 1247 657.641 1242.5 649.213C1238 640.738 1235.75 630.913 1235.75 619.739C1235.75 608.564 1238 598.763 1242.5 590.335C1247 581.86 1253.46 575.278 1261.89 570.591C1270.32 565.856 1280.45 563.489 1292.29 563.489C1304.13 563.489 1314.26 565.856 1322.69 570.591C1331.11 575.278 1337.58 581.86 1342.08 590.335C1346.57 598.763 1348.82 608.564 1348.82 619.739C1348.82 630.913 1346.57 640.738 1342.08 649.213C1337.58 657.641 1331.11 664.223 1322.69 668.957C1314.26 673.645 1304.13 675.989 1292.29 675.989ZM1292.57 647.011C1295.89 647.011 1298.75 645.899 1301.17 643.673C1303.58 641.448 1305.45 638.276 1306.78 634.156C1308.1 630.037 1308.77 625.136 1308.77 619.455C1308.77 613.725 1308.1 608.825 1306.78 604.753C1305.45 600.634 1303.58 597.461 1301.17 595.236C1298.75 593.01 1295.89 591.898 1292.57 591.898C1289.07 591.898 1286.06 593.01 1283.55 595.236C1281.04 597.461 1279.13 600.634 1277.8 604.753C1276.47 608.825 1275.81 613.725 1275.81 619.455C1275.81 625.136 1276.47 630.037 1277.8 634.156C1279.13 638.276 1281.04 641.448 1283.55 643.673C1286.06 645.899 1289.07 647.011 1292.57 647.011ZM1364.73 674V564.909H1402.8V585.648H1403.94C1405.93 577.977 1409.07 572.366 1413.38 568.815C1417.74 565.264 1422.83 563.489 1428.65 563.489C1430.36 563.489 1432.04 563.631 1433.7 563.915C1435.4 564.152 1437.03 564.507 1438.6 564.98V598.432C1436.65 597.769 1434.26 597.272 1431.42 596.94C1428.58 596.609 1426.14 596.443 1424.11 596.443C1420.27 596.443 1416.82 597.319 1413.74 599.071C1410.71 600.776 1408.32 603.19 1406.56 606.315C1404.81 609.393 1403.94 613.015 1403.94 617.182V674H1364.73ZM1451.45 674V564.909H1488.67V585.648H1489.8C1492.08 578.83 1495.96 573.432 1501.45 569.455C1506.94 565.477 1513.48 563.489 1521.05 563.489C1528.72 563.489 1535.33 565.525 1540.87 569.597C1546.41 573.621 1549.75 578.972 1550.88 585.648H1552.02C1553.87 578.972 1557.8 573.621 1563.81 569.597C1569.82 565.525 1576.88 563.489 1584.97 563.489C1595.44 563.489 1603.91 566.85 1610.4 573.574C1616.93 580.297 1620.2 589.246 1620.2 600.42V674H1581V610.364C1581 605.581 1579.79 601.841 1577.37 599.142C1574.96 596.396 1571.72 595.023 1567.64 595.023C1563.62 595.023 1560.42 596.396 1558.06 599.142C1555.74 601.841 1554.58 605.581 1554.58 610.364V674H1517.08V610.364C1517.08 605.581 1515.87 601.841 1513.45 599.142C1511.04 596.396 1507.8 595.023 1503.72 595.023C1501.02 595.023 1498.7 595.638 1496.76 596.869C1494.82 598.1 1493.31 599.876 1492.22 602.196C1491.18 604.469 1490.66 607.191 1490.66 610.364V674H1451.45ZM1691.81 675.989C1680.16 675.989 1670.12 673.763 1661.7 669.312C1653.32 664.814 1646.85 658.375 1642.31 649.994C1637.81 641.566 1635.56 631.481 1635.56 619.739C1635.56 608.47 1637.83 598.621 1642.38 590.193C1646.92 581.765 1653.34 575.207 1661.62 570.52C1669.91 565.832 1679.69 563.489 1690.96 563.489C1699.2 563.489 1706.65 564.767 1713.33 567.324C1720.01 569.881 1725.71 573.598 1730.45 578.474C1735.18 583.304 1738.83 589.175 1741.38 596.088C1743.94 603.001 1745.22 610.79 1745.22 619.455V628.545H1647.78V606.955H1709.14C1709.09 603.83 1708.29 601.083 1706.72 598.716C1705.21 596.301 1703.15 594.431 1700.55 593.105C1697.99 591.732 1695.08 591.045 1691.81 591.045C1688.64 591.045 1685.73 591.732 1683.07 593.105C1680.42 594.431 1678.29 596.277 1676.68 598.645C1675.12 601.012 1674.29 603.782 1674.2 606.955V630.25C1674.2 633.754 1674.93 636.879 1676.4 639.625C1677.87 642.371 1679.97 644.526 1682.72 646.088C1685.46 647.651 1688.78 648.432 1692.66 648.432C1695.36 648.432 1697.82 648.053 1700.05 647.295C1702.32 646.538 1704.26 645.449 1705.87 644.028C1707.48 642.561 1708.67 640.809 1709.42 638.773H1745.22C1743.99 646.348 1741.08 652.93 1736.48 658.517C1731.89 664.057 1725.81 668.366 1718.23 671.443C1710.7 674.473 1701.89 675.989 1691.81 675.989ZM1800.42 612.636V674H1761.22V564.909H1798.43V585.648H1799.57C1801.94 578.735 1806.1 573.313 1812.07 569.384C1818.08 565.454 1825.09 563.489 1833.09 563.489C1840.81 563.489 1847.51 565.264 1853.19 568.815C1858.92 572.319 1863.35 577.149 1866.47 583.304C1869.64 589.459 1871.21 596.491 1871.16 604.398V674H1831.96V612.636C1832 607.239 1830.63 603.001 1827.84 599.923C1825.09 596.846 1821.25 595.307 1816.33 595.307C1813.11 595.307 1810.29 596.017 1807.88 597.438C1805.51 598.811 1803.69 600.799 1802.41 603.403C1801.13 605.96 1800.47 609.038 1800.42 612.636ZM1955.57 564.909V593.318H1883.7V564.909H1955.57ZM1897.62 538.773H1936.82V638.915C1936.82 640.43 1937.08 641.708 1937.6 642.75C1938.12 643.744 1938.93 644.502 1940.02 645.023C1941.11 645.496 1942.5 645.733 1944.21 645.733C1945.39 645.733 1946.76 645.591 1948.33 645.307C1949.94 645.023 1951.12 644.786 1951.88 644.597L1957.56 672.153C1955.81 672.674 1953.3 673.313 1950.03 674.071C1946.81 674.829 1942.98 675.326 1938.52 675.562C1929.53 676.036 1921.98 675.113 1915.87 672.793C1909.76 670.425 1905.17 666.708 1902.09 661.642C1899.01 656.576 1897.52 650.231 1897.62 642.608V538.773Z" fill="white"/>
</svg>
